<?xml version="1.0" encoding="UTF-8"?>
<svg width="128" height="128" viewBox="0 0 128 128" fill="none" xmlns="http://www.w3.org/2000/svg">
  <!-- Background circle -->
  <circle cx="64" cy="64" r="64" fill="#3B82F6"/>
  
  <!-- Notebook base - white with slight transparency -->
  <rect x="32" y="24" width="64" height="80" rx="4" fill="white" fill-opacity="0.95"/>
  
  <!-- Notebook binding -->
  <rect x="32" y="24" width="8" height="80" fill="#2563EB"/>
  <rect x="34" y="32" width="4" height="8" rx="2" fill="white" fill-opacity="0.5"/>
  <rect x="34" y="48" width="4" height="8" rx="2" fill="white" fill-opacity="0.5"/>
  <rect x="34" y="64" width="4" height="8" rx="2" fill="white" fill-opacity="0.5"/>
  <rect x="34" y="80" width="4" height="8" rx="2" fill="white" fill-opacity="0.5"/>
  
  <!-- Notebook lines -->
  <rect x="48" y="40" width="40" height="2" rx="1" fill="#E5E7EB"/>
  <rect x="48" y="52" width="40" height="2" rx="1" fill="#E5E7EB"/>
  <rect x="48" y="64" width="40" height="2" rx="1" fill="#E5E7EB"/>
  <rect x="48" y="76" width="40" height="2" rx="1" fill="#E5E7EB"/>
  <rect x="48" y="88" width="40" height="2" rx="1" fill="#E5E7EB"/>
  
  <!-- TIL text -->
  <text x="68" y="44" text-anchor="middle" font-family="system-ui, -apple-system, sans-serif" font-size="16" font-weight="bold" fill="#1F2937">TIL</text>
  
  <!-- Plus symbol -->
  <g transform="translate(64, 72)">
    <circle cx="0" cy="0" r="12" fill="#2563EB"/>
    <path d="M-6 0H6M0 -6V6" stroke="white" stroke-width="2" stroke-linecap="round"/>
  </g>
  
  <!-- Shadow effect -->
  <rect x="32" y="24" width="64" height="80" rx="4" fill="black" fill-opacity="0.1" filter="url(#shadow)"/>
  
  <!-- Definitions -->
  <defs>
    <filter id="shadow" x="-8" y="-8" width="144" height="144" filterUnits="userSpaceOnUse">
      <feGaussianBlur in="SourceAlpha" stdDeviation="2"/>
      <feOffset dy="2"/>
      <feComposite in2="hardAlpha" operator="out"/>
      <feColorMatrix type="matrix" values="0 0 0 0 0 0 0 0 0 0 0 0 0 0 0 0 0 0 0.15 0"/>
      <feBlend mode="normal" in2="BackgroundImageFix" result="effect"/>
      <feBlend mode="normal" in="SourceGraphic" in2="effect" result="shape"/>
    </filter>
  </defs>
</svg> 